<svg width="16" height="16" viewBox="0 0 16 16" fill="none" xmlns="http://www.w3.org/2000/svg">
<path d="M4.79053 8.22455V3.94531" stroke="#17191F" stroke-width="1.5" stroke-linecap="round" stroke-linejoin="round"/>
<path d="M5.1131 8.59692L6.36413 11.0921C6.47768 11.3187 6.64953 11.5108 6.86199 11.6489L8.64979 12.8107C8.68802 12.8355 8.69351 12.8893 8.6612 12.9214L6.58962 14.9793C6.55998 15.0087 6.51151 15.0065 6.48466 14.9745L4.74896 12.9028C4.53382 12.646 4.41592 12.3217 4.41592 11.9867V8.59692M4.79568 3.943H3.00747C2.21968 3.943 1.58105 4.58163 1.58105 5.36942V6.78744C1.58105 7.57525 2.21968 8.21385 3.00747 8.21385H4.79568L11.3656 11.0526C11.9083 11.2871 12.5504 11.1709 12.9181 10.708C13.9156 9.45241 14.4188 8.03926 14.4188 5.71491C14.2754 3.92679 13.8006 2.58925 12.9283 1.45868C12.5723 0.997241 11.9388 0.88618 11.4031 1.11548L4.79568 3.943Z" stroke="#17191F" stroke-width="1.5" stroke-linejoin="round"/>
</svg>
