<svg width="20" height="18" viewBox="0 0 20 18" fill="none" xmlns="http://www.w3.org/2000/svg">
<path d="M7.22022 12.852V4.47654C7.22022 3.89892 6.78701 3.46571 6.20939 3.46571H0V0H6.20939C8.66427 0 10.6859 2.02166 10.6859 4.47654V12.7798C10.6859 15.2347 8.66427 17.2563 6.20939 17.2563H0V13.7906H6.20939C6.78701 13.8628 7.22022 13.4296 7.22022 12.852Z" fill="#3154F3"/>
<path d="M18.2672 13.8628H11.769C11.4801 14.9459 10.8303 15.8845 9.9639 16.5343C10.4693 17.0397 11.1191 17.3285 11.8412 17.3285H18.195C19.1336 17.3285 19.9278 16.5343 19.9278 15.5957C20 14.657 19.2058 13.8628 18.2672 13.8628ZM11.9134 6.93141V10.3971H16.1733C17.1119 10.3971 17.9061 9.60289 17.9061 8.66427C17.9061 7.72564 17.1119 6.93141 16.1733 6.93141H11.9134ZM11.769 3.46571H18.2672C19.2058 3.46571 20 2.67148 20 1.73285C20 0.794224 19.2058 0 18.2672 0H11.9134C11.1913 0 10.4693 0.288809 10.0361 0.794224C10.9025 1.44404 11.5523 2.38267 11.769 3.46571Z" fill="#E00EB7"/>
</svg>
