<svg width="18" height="16" viewBox="0 0 18 16" fill="none" xmlns="http://www.w3.org/2000/svg">
<path d="M16.4399 12.7998C17.2846 12.7998 18.0003 13.5337 17.9353 14.4004C17.9351 15.2669 17.2198 16 16.3751 16H10.6572C10.0074 16 9.42249 15.7332 8.96764 15.2666C9.74732 14.6666 10.3316 13.7997 10.5915 12.7998H16.4399Z" fill="#A7AAAD"/>
<path d="M5.58847 0C7.79781 3.55096e-05 9.61682 1.86714 9.61682 4.13379V11.7998C9.61682 14.0664 7.79781 15.9336 5.58847 15.9336H0V12.7334H5.58847C6.10829 12.8 6.49847 12.3995 6.49847 11.8662V4.13379C6.49847 3.60048 6.10829 3.20023 5.58847 3.2002H0V0H5.58847Z" fill="#A7AAAD"/>
<path d="M14.5561 6.40039C15.4007 6.40057 16.1153 7.13344 16.1153 8C16.1153 8.86656 15.4007 9.59943 14.5561 9.59961H10.7219V6.40039H14.5561Z" fill="#A7AAAD"/>
<path d="M16.4399 0C17.2845 0 17.9998 0.733113 18 1.59961C18 2.46628 17.2846 3.2002 16.4399 3.2002H10.5915C10.3966 2.2002 9.81213 1.3334 9.03236 0.733398C9.42225 0.266732 10.0721 0 10.7219 0H16.4399Z" fill="#A7AAAD"/>
</svg>
