<svg width="101" height="24" viewBox="0 0 101 24" fill="none" xmlns="http://www.w3.org/2000/svg">
<path d="M9.95851 17.7261V6.17427C9.95851 5.37759 9.361 4.78008 8.56432 4.78008H0V0H8.56432C11.9502 0 14.7386 2.78838 14.7386 6.17427V17.6266C14.7386 21.0124 11.9502 23.8008 8.56432 23.8008H0V19.0207H8.56432C9.361 19.1203 9.95851 18.5228 9.95851 17.7261Z" fill="#3154F3"/>
<path d="M25.195 19.1203H16.2323C15.834 20.6141 14.9377 21.9087 13.7427 22.805C14.4398 23.5021 15.336 23.9004 16.3319 23.9004H25.0954C26.39 23.9004 27.4854 22.805 27.4854 21.5104C27.585 20.2158 26.4896 19.1203 25.195 19.1203ZM16.4315 9.56017V14.3402H22.307C23.6016 14.3402 24.697 13.2448 24.697 11.9502C24.697 10.6556 23.6016 9.56017 22.307 9.56017H16.4315ZM16.2323 4.78008H25.195C26.4896 4.78008 27.585 3.68465 27.585 2.39004C27.585 1.09544 26.4896 0 25.195 0H16.4315C15.4356 0 14.4398 0.39834 13.8423 1.09544C15.0373 1.9917 15.9335 3.28631 16.2323 4.78008Z" fill="#E00EB7"/>
<path d="M44.9128 2.98755C44.6141 2.6888 44.3153 2.48963 43.917 2.39004C43.5186 2.29046 43.1203 2.19087 42.7219 2.19087C42.1244 2.19087 41.5269 2.29046 41.029 2.58921C40.5311 2.88797 40.1327 3.28631 39.9336 3.78423C39.6348 4.28216 39.5352 4.87967 39.5352 5.57676C39.5352 6.27386 39.6348 6.87137 39.9336 7.46888C40.2323 7.9668 40.5311 8.36514 41.029 8.6639C41.5269 8.96265 42.1244 9.06224 42.8215 9.06224C43.3194 9.06224 43.8174 8.96265 44.2157 8.86307C44.6141 8.6639 44.9128 8.46473 45.2116 8.16597C45.5103 7.86722 45.6099 7.56846 45.7095 7.17012L44.2157 6.97095C44.1161 7.17012 44.0165 7.36929 43.917 7.46888C43.8174 7.56846 43.6182 7.66805 43.419 7.76763C43.3194 7.86722 43.1203 7.9668 42.9211 7.9668C42.6223 7.9668 42.3236 7.86722 42.0248 7.76763C41.7261 7.56846 41.5269 7.36929 41.4273 7.17012C41.3277 6.87137 41.2282 6.57261 41.2282 6.17427H45.9087V5.57676C45.9087 4.97925 45.8091 4.48133 45.7095 4.08299C45.5103 3.68465 45.2116 3.28631 44.9128 2.98755ZM41.2282 4.97925C41.2282 4.6805 41.3277 4.48133 41.4273 4.28216C41.5269 3.9834 41.7261 3.78423 42.0248 3.68465C42.224 3.48548 42.5228 3.48548 42.9211 3.48548C43.2199 3.48548 43.5186 3.58506 43.7178 3.68465C43.8174 3.78423 44.0165 3.9834 44.1161 4.18257C44.2157 4.38174 44.3153 4.6805 44.3153 4.97925H41.2282ZM49.0954 3.68465C49.2945 3.48548 49.5933 3.38589 49.9916 3.38589C50.39 3.38589 50.6887 3.48548 50.8879 3.68465C51.0871 3.88382 51.2863 4.18257 51.2863 4.48133H52.78C52.78 3.9834 52.5809 3.58506 52.3817 3.18672C52.0829 2.78838 51.7842 2.48963 51.3858 2.29046C50.9875 2.09129 50.4896 1.9917 49.8921 1.9917C49.195 1.9917 48.697 2.09129 48.1991 2.39004C47.7012 2.6888 47.3028 3.08714 47.1037 3.58506C46.8049 4.38174 46.7053 4.97925 46.7053 5.67635C46.7053 6.37344 46.8049 6.97095 47.1037 7.46888C47.4024 7.9668 47.7012 8.36514 48.1991 8.6639C48.697 8.96265 49.2945 9.06224 49.8921 9.06224C50.4896 9.06224 50.9875 8.96266 51.3858 8.76349C51.7842 8.56432 52.1825 8.26556 52.3817 7.86722C52.5809 7.66805 52.78 7.17012 52.78 6.77178H51.2863C51.2863 6.97095 51.1867 7.26971 50.9875 7.36929C50.8879 7.56846 50.6887 7.66805 50.4896 7.76763C50.2904 7.86722 50.0912 7.86722 49.8921 7.86722C49.5933 7.86722 49.2946 7.76763 48.9958 7.56846C48.7966 7.36929 48.5975 7.17012 48.3983 6.77178C48.2987 6.47303 48.1991 6.07469 48.1991 5.57676C48.1991 5.07884 48.2987 4.6805 48.3983 4.38174C48.5975 4.18257 48.7966 3.88382 49.0954 3.68465ZM58.9543 2.98755C58.6555 2.6888 58.3568 2.48963 57.9585 2.39004C57.5601 2.29046 57.1618 2.19087 56.7634 2.19087C56.1659 2.19087 55.5684 2.29046 55.0705 2.58921C54.5726 2.88797 54.1742 3.28631 53.975 3.78423C53.6763 4.28216 53.5767 4.87967 53.5767 5.57676C53.5767 6.27386 53.6763 6.87137 53.975 7.46888C54.2738 7.9668 54.5726 8.36514 55.0705 8.6639C55.5684 8.96265 56.1659 9.06224 56.863 9.06224C57.3609 9.06224 57.8589 8.96265 58.2572 8.86307C58.6555 8.6639 58.9543 8.46473 59.2531 8.16597C59.5518 7.86722 59.6514 7.56846 59.751 7.17012L58.2572 6.97095C58.1576 7.17012 58.058 7.36929 57.9585 7.46888C57.8589 7.56846 57.6597 7.66805 57.4605 7.76763C57.2614 7.86722 57.0622 7.9668 56.863 7.9668C56.5643 7.9668 56.2655 7.86722 55.9667 7.76763C55.668 7.56846 55.4688 7.36929 55.3692 7.17012C55.2697 6.87137 55.1701 6.57261 55.1701 6.17427H59.8506V5.57676C59.8506 4.97925 59.751 4.48133 59.6514 4.08299C59.4522 3.68465 59.1535 3.28631 58.9543 2.98755ZM55.1701 4.97925C55.1701 4.6805 55.2697 4.48133 55.3692 4.28216C55.4688 3.9834 55.668 3.78423 55.9667 3.68465C56.1659 3.48548 56.4647 3.48548 56.863 3.48548C57.1618 3.48548 57.4605 3.58506 57.6597 3.68465C57.7593 3.78423 57.9585 3.9834 58.1576 4.18257C58.2572 4.38174 58.3568 4.6805 58.3568 4.97925H55.1701ZM71.4024 7.76763C71.4024 7.76763 71.3028 7.76763 71.2033 7.76763C71.1037 7.76763 71.0041 7.76763 70.9045 7.76763C70.8049 7.76763 70.6058 7.76763 70.5062 7.66805C70.4066 7.66805 70.307 7.56846 70.2074 7.46888C70.1078 7.36929 70.1078 7.17012 70.1078 6.97095V3.48548H71.4024V2.29046H70.1078V0.59751H68.5145V2.19087H67.5186V3.38589H68.5145V7.17012C68.5145 7.56846 68.614 7.9668 68.8132 8.26556C69.112 8.6639 69.4107 8.86307 69.7095 8.96266C70.0082 9.06224 70.4066 9.16182 70.8049 9.16182C71.0041 9.16182 71.2033 9.16183 71.4024 9.06224C71.6016 9.06224 71.7012 8.96266 71.8008 8.96266L71.4024 7.76763ZM36.6472 0.497925C36.0497 0.19917 35.2531 0 34.3568 0H31.2697V9.06224H34.3568C35.2531 9.06224 36.0497 8.86307 36.7468 8.56432C37.3443 8.16597 37.8423 7.66805 38.141 6.97095C38.4398 6.27386 38.6389 5.47718 38.6389 4.58091C38.6389 3.68465 38.4398 2.78838 38.141 2.19087C37.8423 1.39419 37.3443 0.896266 36.6472 0.497925ZM36.7468 6.27386C36.5477 6.77178 36.2489 7.07054 35.8506 7.26971C35.4522 7.46888 34.9543 7.56846 34.2572 7.56846H32.863V1.39419H34.2572C34.8547 1.39419 35.3526 1.49378 35.751 1.69295C36.1493 1.89212 36.4481 2.29046 36.6472 2.6888C36.8464 3.18672 36.946 3.68465 36.946 4.38174C36.946 5.07884 36.946 5.77593 36.7468 6.27386ZM65.7261 2.48963C65.4273 2.29046 64.9294 2.19087 64.5311 2.19087C64.0331 2.19087 63.6348 2.29046 63.2365 2.48963C62.9377 2.6888 62.6389 2.98755 62.5394 3.38589H62.4398V2.29046H60.946V9.06224H62.5394V5.07884C62.5394 4.78008 62.6389 4.48133 62.7385 4.28216C62.8381 4.08299 63.0373 3.88382 63.2365 3.78423C63.4356 3.68465 63.7344 3.58506 63.9335 3.58506C64.3319 3.58506 64.6306 3.68465 64.9294 3.9834C65.1286 4.28216 65.3277 4.58091 65.3277 5.07884V9.16182H66.9211V4.78008C66.9211 4.28216 66.8215 3.78423 66.6224 3.38589C66.3236 2.98755 66.1244 2.6888 65.7261 2.48963Z" fill="#17191F"/>
<path d="M51.7842 15.9336C51.3858 15.5353 50.9875 15.2365 50.4896 15.1369C49.9916 14.9377 49.4937 14.8382 48.8962 14.8382C47.9999 14.8382 47.3028 15.0373 46.6058 15.4357C46.0082 15.834 45.5103 16.3319 45.112 17.029C44.7136 17.7261 44.6141 18.5228 44.6141 19.4191C44.6141 20.3153 44.8132 21.112 45.112 21.8091C45.5103 22.5062 46.0082 23.0041 46.6058 23.4025C47.3028 23.8008 47.9999 24 48.9958 24C49.6929 24 50.39 23.9004 50.8879 23.7012C51.4854 23.5021 51.8838 23.2033 52.2821 22.805C52.6804 22.4066 52.8796 21.9087 52.9792 21.4108L50.6887 21.3112C50.5892 21.5104 50.4896 21.7095 50.2904 21.9087C50.0912 22.1079 49.8921 22.2075 49.6929 22.2075C49.4937 22.307 49.195 22.307 48.9958 22.307C48.5975 22.307 48.1991 22.2075 47.9004 22.0083C47.6016 21.8091 47.4024 21.6099 47.2033 21.3112C47.0041 21.0124 47.0041 20.6141 47.0041 20.2158H52.9792V19.5187C52.9792 18.722 52.8796 18.1245 52.6804 17.527C52.3817 16.7303 52.0829 16.2324 51.7842 15.9336ZM46.9045 18.4232C46.9045 18.1245 47.0041 17.8257 47.1037 17.527C47.3028 17.2282 47.502 17.029 47.8008 16.8299C48.0995 16.6307 48.3983 16.5311 48.7966 16.5311C49.195 16.5311 49.4937 16.6307 49.6929 16.7303C49.9916 16.9294 50.1908 17.1286 50.2904 17.3278C50.4896 17.6265 50.4896 17.9253 50.4896 18.2241H46.9045V18.4232ZM75.4854 15.9336C75.0871 15.5353 74.6887 15.2365 74.1908 15.1369C73.6929 14.9377 73.195 14.8382 72.5975 14.8382C71.7012 14.8382 71.0041 15.0373 70.307 15.4357C69.7095 15.834 69.2116 16.3319 68.8132 17.029C68.4149 17.7261 68.3153 18.5228 68.3153 19.4191C68.3153 20.3153 68.5145 21.112 68.8132 21.8091C69.2116 22.5062 69.7095 23.0041 70.307 23.4025C71.0041 23.8008 71.7012 24 72.697 24C73.3941 24 74.0912 23.9004 74.5892 23.7012C75.1867 23.5021 75.585 23.2033 75.9833 22.805C76.3817 22.4066 76.5809 21.9087 76.6804 21.4108L74.39 21.3112C74.2904 21.5104 74.1908 21.7095 73.9916 21.9087C73.8921 21.8091 73.6929 21.9087 73.4937 21.9087C73.2945 22.0083 72.9958 22.0083 72.7966 22.0083C72.3983 22.0083 71.9999 21.9087 71.7012 21.7095C71.4024 21.5104 71.2033 21.3112 71.0041 21.0124C70.8049 20.7137 70.7053 20.4149 70.7053 19.917H76.6804V19.2199C76.6804 18.4232 76.5808 17.8257 76.3817 17.2282C76.1825 16.7303 75.8838 16.2324 75.4854 15.9336ZM70.7053 18.4232C70.7053 18.1245 70.8049 17.8257 70.9045 17.527C71.1037 17.2282 71.3028 17.029 71.6016 16.8299C71.9004 16.6307 72.1991 16.5311 72.5975 16.5311C72.9958 16.5311 73.2945 16.6307 73.4937 16.7303C73.7925 16.9294 73.9916 17.1286 74.0912 17.3278C74.2904 17.6265 74.2904 17.9253 74.2904 18.2241H70.7053V18.4232ZM100.481 19.4191C100.083 19.0207 99.3858 18.722 98.5891 18.5228L96.9958 18.2241C96.5975 18.1245 96.2987 18.0249 96.0995 17.8257C95.9004 17.7261 95.8008 17.527 95.8008 17.3278C95.8008 17.029 95.9004 16.8299 96.1991 16.7303C96.4979 16.5311 96.7966 16.5311 97.195 16.5311C97.4937 16.5311 97.6929 16.5311 97.8921 16.6307C98.0912 16.7303 98.2904 16.8299 98.39 17.029C98.4896 17.2282 98.5891 17.3278 98.5891 17.527L100.78 17.4274C100.68 16.6307 100.282 15.9336 99.6846 15.5353C99.0871 15.0373 98.1908 14.8382 97.0954 14.8382C96.2987 14.8382 95.7012 14.9377 95.1037 15.1369C94.5062 15.3361 94.1078 15.6348 93.8091 16.1328C93.5103 16.5311 93.3111 17.029 93.3111 17.6265C93.3111 18.3236 93.5103 18.8216 93.9087 19.2199C94.307 19.6182 95.0041 19.917 95.8008 20.1162L97.2945 20.4149C97.6929 20.5145 97.9916 20.6141 98.1908 20.7137C98.39 20.8133 98.4896 21.0124 98.4896 21.2116C98.4896 21.5104 98.39 21.7095 98.0912 21.9087C97.7925 22.1079 97.4937 22.1079 97.0954 22.1079C96.697 22.1079 96.2987 22.0083 95.9999 21.8091C95.7012 21.6099 95.502 21.3112 95.502 21.0124L93.112 21.112C93.2116 21.9087 93.6099 22.6058 94.307 23.1037C95.0041 23.6016 95.9004 23.8008 97.0954 23.8008C97.8921 23.8008 98.4896 23.7012 99.0871 23.4025C99.6846 23.2033 100.183 22.805 100.481 22.4066C100.78 22.0083 100.979 21.5104 100.979 20.9129C101.079 20.3153 100.88 19.8174 100.481 19.4191ZM91.917 21.8091C91.8174 21.8091 91.7178 21.8091 91.6182 21.8091C91.419 21.8091 91.3194 21.8091 91.2199 21.7095C91.1203 21.6099 91.0207 21.6099 90.9211 21.4108C90.8215 21.3112 90.8215 21.112 90.8215 20.9129V16.6307H92.5145V14.9377H90.8215V12.8465H88.3319V14.9377H87.1369V16.7303H88.3319V21.3112C88.3319 21.9087 88.4315 22.4066 88.7302 22.7054C88.9294 23.1037 89.3277 23.4025 89.7261 23.5021C90.1244 23.7012 90.7219 23.8008 91.3194 23.7012C91.6182 23.7012 91.917 23.7012 92.1161 23.6016C92.3153 23.5021 92.5145 23.5021 92.614 23.5021L92.2157 21.7095C92.1161 21.8091 92.0165 21.8091 91.917 21.8091ZM33.7593 18.8216H38.8381V16.7303H33.7593V13.9419H39.2365V11.9502H31.2697V23.7012H39.2365V21.6099H33.7593V18.8216ZM40.8298 23.7012H43.3194V11.9502H40.8298V23.7012ZM64.2323 14.7386C63.6348 14.7386 63.0373 14.9377 62.5394 15.2365C62.0414 15.5353 61.7427 15.9336 61.5435 16.4315H61.4439C61.3443 15.9336 61.0456 15.5353 60.5477 15.2365C60.1493 14.9377 59.6514 14.7386 58.9543 14.7386C58.3568 14.7386 57.8589 14.9377 57.4605 15.2365C57.0622 15.5353 56.7634 15.9336 56.5643 16.4315H56.4647V14.9377H54.1742V23.8008H56.6638V18.5228C56.6638 18.2241 56.7634 17.9253 56.863 17.6265C56.9626 17.4274 57.1618 17.2282 57.3609 17.029C57.5601 16.9294 57.8589 16.8299 58.058 16.8299C58.4564 16.8299 58.7551 16.9294 59.0539 17.2282C59.2531 17.527 59.4522 17.8257 59.4522 18.2241V23.7012H61.8423V18.3236C61.8423 17.8257 61.9419 17.527 62.2406 17.2282C62.4398 16.9294 62.8381 16.8299 63.2365 16.8299C63.6348 16.8299 63.9336 16.9294 64.2323 17.2282C64.5311 17.4274 64.6306 17.8257 64.6306 18.3236V23.8008H67.1203V17.8257C67.1203 16.8299 66.8215 16.1328 66.3236 15.6348C65.7261 15.0373 65.029 14.7386 64.2323 14.7386ZM84.6472 15.1369C84.1493 14.8382 83.6514 14.7386 83.0539 14.7386C82.3568 14.7386 81.8589 14.9377 81.3609 15.2365C80.863 15.5353 80.5643 15.9336 80.3651 16.4315H80.2655V14.9377H77.975V23.8008H80.4647V18.722C80.4647 18.3236 80.5643 18.0249 80.6638 17.7261C80.7634 17.4274 80.9626 17.2282 81.2613 17.1286C81.5601 17.029 81.7593 16.9294 82.1576 16.9294C82.6555 16.9294 83.0539 17.1286 83.3526 17.4274C83.6514 17.7261 83.751 18.1245 83.751 18.722V23.9004H86.2406V18.3236C86.2406 17.6265 86.141 17.029 85.8423 16.5311C85.4439 15.834 85.1452 15.4357 84.6472 15.1369Z" fill="#17191F"/>
</svg>
