<svg width="24" height="18" viewBox="0 0 24 18" fill="none" xmlns="http://www.w3.org/2000/svg">
<path d="M15.4 7.93328C15.4 5.87142 13.7285 4.19995 11.6667 4.19995C9.60482 4.19995 7.93335 5.87142 7.93335 7.93328C7.93335 9.99515 9.60482 11.6666 11.6667 11.6666C13.7285 11.6666 15.4 9.99515 15.4 7.93328Z" stroke="#17191F" stroke-width="1.5" stroke-linecap="round" stroke-linejoin="round"/>
<path d="M15.3816 8.30656C15.7251 8.41067 16.0893 8.46667 16.4667 8.46667C18.5286 8.46667 20.2 6.7952 20.2 4.73333C20.2 2.67147 18.5286 1 16.4667 1C14.5308 1 12.939 2.47349 12.7518 4.36014" stroke="#17191F" stroke-width="1.5" stroke-linecap="round" stroke-linejoin="round"/>
<path d="M10.5815 4.36014C10.3943 2.47349 8.80255 1 6.86663 1C4.80477 1 3.1333 2.67147 3.1333 4.73333C3.1333 6.7952 4.80477 8.46667 6.86663 8.46667C7.24403 8.46667 7.60834 8.41067 7.95172 8.30656" stroke="#17191F" stroke-width="1.5" stroke-linecap="round" stroke-linejoin="round"/>
<path d="M22.3333 13.8C22.3333 10.8545 19.7068 8.46667 16.4667 8.46667" stroke="#17191F" stroke-width="1.5" stroke-linecap="round" stroke-linejoin="round"/>
<path d="M17.5334 17C17.5334 14.0545 14.9068 11.6666 11.6667 11.6666C8.42664 11.6666 5.80005 14.0545 5.80005 17" stroke="#17191F" stroke-width="1.5" stroke-linecap="round" stroke-linejoin="round"/>
<path d="M6.86667 8.46667C3.62659 8.46667 1 10.8545 1 13.8" stroke="#17191F" stroke-width="1.5" stroke-linecap="round" stroke-linejoin="round"/>
</svg>
